<mxfile host="65bd71144e">
    <diagram id="67uUcwaBJv9BeKyt__f6" name="第 1 页">
        <mxGraphModel dx="1072" dy="722" grid="1" gridSize="10" guides="1" tooltips="1" connect="1" arrows="1" fold="1" page="1" pageScale="1" pageWidth="827" pageHeight="1169" background="none" math="0" shadow="1">
            <root>
                <mxCell id="0"/>
                <mxCell id="1" parent="0"/>
                <mxCell id="18" value="" style="group;strokeColor=#FFFFFF;" vertex="1" connectable="0" parent="1">
                    <mxGeometry x="130" y="50" width="560" height="590" as="geometry"/>
                </mxCell>
                <mxCell id="3" value="" style="rounded=0;whiteSpace=wrap;html=1;fillColor=#b1ddf0;glass=0;shadow=0;sketch=1;strokeColor=#10739e;" vertex="1" parent="18">
                    <mxGeometry x="120" y="70" width="190" height="520" as="geometry"/>
                </mxCell>
                <mxCell id="5" style="edgeStyle=orthogonalEdgeStyle;rounded=0;orthogonalLoop=1;jettySize=auto;html=1;entryX=-0.016;entryY=0.081;entryDx=0;entryDy=0;entryPerimeter=0;curved=1;exitX=0.5;exitY=1;exitDx=0;exitDy=0;endArrow=block;endFill=0;sketch=1;fillColor=#d80073;strokeColor=#A50040;startArrow=none;startFill=0;startSize=13;endSize=13;" edge="1" parent="18" source="4" target="3">
                    <mxGeometry relative="1" as="geometry">
                        <Array as="points">
                            <mxPoint x="45" y="112"/>
                        </Array>
                    </mxGeometry>
                </mxCell>
                <mxCell id="4" value="&lt;h2&gt;&lt;i&gt;&lt;b&gt;&lt;u&gt;&lt;font face=&quot;Verdana&quot; color=&quot;#ffffff&quot;&gt;STACK&lt;/font&gt;&lt;/u&gt;&lt;/b&gt;&lt;/i&gt;&lt;/h2&gt;" style="text;html=1;strokeColor=#ae4132;align=center;verticalAlign=middle;whiteSpace=wrap;rounded=0;shadow=0;glass=0;sketch=1;fillStyle=hachure;fillColor=#FFCCFF;" vertex="1" parent="18">
                    <mxGeometry y="20" width="90" height="40" as="geometry"/>
                </mxCell>
                <mxCell id="6" value="&lt;font style=&quot;font-size: 21px&quot; color=&quot;#ffffff&quot;&gt;12&lt;/font&gt;" style="rounded=1;whiteSpace=wrap;html=1;shadow=0;glass=0;sketch=1;fillColor=#FFCCFF;gradientColor=none;strokeColor=#FFFFFF;" vertex="1" parent="18">
                    <mxGeometry x="155" y="480" width="120" height="60" as="geometry"/>
                </mxCell>
                <mxCell id="7" value="&lt;font style=&quot;font-size: 19px&quot; color=&quot;#ffffff&quot;&gt;78&lt;/font&gt;" style="rounded=1;whiteSpace=wrap;html=1;shadow=0;glass=0;sketch=1;fillColor=#FFCCFF;gradientColor=none;strokeColor=#FFFFFF;" vertex="1" parent="18">
                    <mxGeometry x="155" y="380" width="120" height="60" as="geometry"/>
                </mxCell>
                <mxCell id="8" value="&lt;font style=&quot;font-size: 20px&quot; color=&quot;#ffffff&quot;&gt;441&lt;/font&gt;" style="rounded=1;whiteSpace=wrap;html=1;shadow=0;glass=0;sketch=1;fillColor=#FFCCFF;gradientColor=none;strokeColor=#FFFFFF;" vertex="1" parent="18">
                    <mxGeometry x="155" y="280" width="120" height="60" as="geometry"/>
                </mxCell>
                <mxCell id="9" value="&lt;font style=&quot;font-size: 18px&quot; color=&quot;#ffffff&quot;&gt;459&lt;/font&gt;" style="rounded=1;whiteSpace=wrap;html=1;shadow=0;glass=0;sketch=1;fillColor=#FFCCFF;gradientColor=none;" vertex="1" parent="18">
                    <mxGeometry x="155" y="180" width="120" height="60" as="geometry"/>
                </mxCell>
                <mxCell id="11" style="edgeStyle=orthogonalEdgeStyle;curved=1;rounded=0;sketch=1;orthogonalLoop=1;jettySize=auto;html=1;startArrow=none;startFill=0;endArrow=block;endFill=0;startSize=13;endSize=13;" edge="1" parent="18" source="10">
                    <mxGeometry relative="1" as="geometry">
                        <mxPoint x="215" y="150" as="targetPoint"/>
                    </mxGeometry>
                </mxCell>
                <mxCell id="10" value="&lt;font style=&quot;font-size: 18px&quot; color=&quot;#ffffff&quot;&gt;999&lt;/font&gt;" style="rounded=1;whiteSpace=wrap;html=1;shadow=0;glass=0;sketch=1;fillColor=#FFCCFF;gradientColor=none;" vertex="1" parent="18">
                    <mxGeometry x="350" width="130" height="60" as="geometry"/>
                </mxCell>
                <mxCell id="14" value="" style="html=1;shadow=0;dashed=0;align=center;verticalAlign=middle;shape=mxgraph.arrows2.arrow;dy=0.6;dx=40;flipH=1;notch=0;rounded=0;glass=0;sketch=1;fillColor=#e3c800;strokeColor=#B09500;fontColor=#000000;" vertex="1" parent="18">
                    <mxGeometry x="370" y="200" width="80" height="20" as="geometry"/>
                </mxCell>
                <mxCell id="15" value="" style="html=1;shadow=0;dashed=0;align=center;verticalAlign=middle;shape=mxgraph.arrows2.arrow;dy=0.6;dx=40;flipH=1;notch=0;rounded=0;glass=0;sketch=1;fillColor=#e3c800;strokeColor=#B09500;fontColor=#000000;" vertex="1" parent="18">
                    <mxGeometry x="370" y="500" width="80" height="20" as="geometry"/>
                </mxCell>
                <mxCell id="16" value="&lt;i&gt;&lt;b&gt;&lt;font color=&quot;#ff0000&quot;&gt;PTR 首位指针&lt;/font&gt;&lt;/b&gt;&lt;/i&gt;" style="text;html=1;strokeColor=none;fillColor=none;align=center;verticalAlign=middle;whiteSpace=wrap;rounded=0;shadow=0;glass=0;sketch=1;" vertex="1" parent="18">
                    <mxGeometry x="450" y="195" width="100" height="30" as="geometry"/>
                </mxCell>
                <mxCell id="17" value="&lt;i&gt;&lt;b&gt;&lt;font style=&quot;font-size: 14px&quot; color=&quot;#ff0000&quot;&gt;底部指针，亦是元素数组的头指针&lt;/font&gt;&lt;/b&gt;&lt;/i&gt;" style="text;html=1;strokeColor=none;fillColor=none;align=center;verticalAlign=middle;whiteSpace=wrap;rounded=0;shadow=0;glass=0;sketch=1;" vertex="1" parent="18">
                    <mxGeometry x="460" y="495" width="100" height="30" as="geometry"/>
                </mxCell>
            </root>
        </mxGraphModel>
    </diagram>
</mxfile>